<?xml version="1.0" encoding="UTF-8"?>
<!DOCTYPE svg PUBLIC "-//W3C//DTD SVG 1.1//EN" "http://www.w3.org/Graphics/SVG/1.1/DTD/svg11.dtd">
<!-- Creator: CorelDRAW 2018 (64-Bit) -->
<svg xmlns="http://www.w3.org/2000/svg" xml:space="preserve" width="110.321mm" height="131.685mm" version="1.1" style="shape-rendering:geometricPrecision; text-rendering:geometricPrecision; image-rendering:optimizeQuality; fill-rule:evenodd; clip-rule:evenodd"
viewBox="0 0 11032.1 13168.5"
 xmlns:xlink="http://www.w3.org/1999/xlink">
 <defs>
  <style type="text/css">
   <![CDATA[
    .fil2 {fill:#FEFEFE}
    .fil0 {fill:#F7DC22}
    .fil1 {fill:#6B6869}
   ]]>
  </style>
 </defs>
 <g id="Слой_x0020_1">
  <metadata id="CorelCorpID_0Corel-Layer"/>
  <g id="_826178576">
   <g>
    <polygon class="fil0" points="8100.02,200.02 4150.05,200.02 2175.03,4150.01 4150.05,4150.01 3162.53,6124.99 5137.51,6124.99 2175.03,12050.02 10568.77,3162.52 8593.73,3162.52 6618.76,3162.52 "/>
    <path class="fil1" d="M4150.05 200.02l2862.49 0 -493.76 987.52 -2368.73 0c-1636.18,0 -2962.53,1326.31 -2962.53,2962.48 0,545.37 442.12,987.5 987.52,987.5l1481.22 -0.02 493.79 -987.48 -1975.01 0 493.72 -987.49 2862.52 0 -1481.23 2962.45 -1875.01 0c-1090.78,0 -1975.02,-884.23 -1975.02,-1974.96 0,-2181.52 1768.47,-3950 3950.03,-3950z"/>
    <path class="fil1" d="M6618.77 3162.53l1185 0c2188.37,0 666.56,2221.88 666.56,2221.88l-2098.46 2221.82 1629.41 -3258.73c0,-109.06 -88.42,-197.48 -197.53,-197.48l-1678.71 0 -987.53 1974.96 -887.46 0 2962.49 -5924.96 887.48 0 -1481.25 2962.51z"/>
   </g>
   <path class="fil2" d="M8100.02 200.02l-887.48 0 -200 0 -2862.49 0c-2181.56,0 -3950.03,1768.48 -3950.03,3950 0,1090.73 884.24,1974.96 1975.02,1974.96l987.5 0 -0.01 0.01 1974.98 0 -2962.48 5925.03 6045.3 -6400.92 250 -264.69 0.02 -0.03 2098.42 -2221.86 -1975.04 0 -1974.96 0 1481.25 -2962.5zm-4466.19 1032.43l-965.05 1930.08 -0.02 0 -256.73 513.49 -237 473.99 0.01 0 0 0.01 1975 0 -70.53 141.07 -423.25 846.41 -1481.22 0.02c-545.4,0 -987.52,-442.13 -987.52,-987.5 0,-1460.08 1056.24,-2673.31 2446.31,-2917.57zm3578.71 -1232.43l887.48 0 322.66 0 -144.53 289.06 -1336.72 2673.44 1652.3 0 1975.04 0 463.32 0 -318.01 336.72 -2085.11 2207.77 -0.03 0.04 -13.3 14.08 -250 264.69 -6045.3 6400.92 -927.18 981.74 603.74 -1207.52 2817.95 -5635.97 -1652.32 0 -482.82 0 0.01 -0.01 -504.68 0c-600.6,0 -1144.36,-243.46 -1537.96,-637.04 -393.6,-393.59 -637.06,-937.34 -637.06,-1537.92 0,-1145.97 464.52,-2183.49 1215.53,-2934.49 751,-750.99 1788.51,-1215.51 2934.5,-1215.51l2862.49 0 200 0zm-4666.42 2962.51l714.39 -1428.77c-483.75,164.33 -907.25,459.01 -1228.57,842.23 -402.22,479.71 -644.42,1098.43 -644.42,1774.03 0,217.47 88.15,414.36 230.65,556.86 142.49,142.49 339.39,230.64 556.87,230.64l0 0.78 1358.18 -0.02 294.16 -588.26 -1652.34 0 -200 0 0 -0.01 -122.67 0 144.53 -289.06 237 -473.99 256.73 -513.49 55.47 -110.94 0.02 0z"/>
  </g>
 </g>
</svg>
